<?xml version="1.0" encoding="iso-8859-1"?>
<!-- Generator: Adobe Illustrator 19.1.0, SVG Export Plug-In . SVG Version: 6.00 Build 0)  -->
<svg version="1.1" id="Capa_1" xmlns="http://www.w3.org/2000/svg" xmlns:xlink="http://www.w3.org/1999/xlink" x="0px" y="0px"
	 viewBox="0 0 317.974 317.974" style="enable-background:new 0 0 317.974 317.974;" xml:space="preserve">
<g>
	<path d="M304.777,222.368V0H13.191v222.375l-7.622,95.599h306.836L304.777,222.368z M19.489,305.12l6.523-81.736l0.045-0.501
		v-0.514V12.854h265.865v209.521v0.514l0.045,0.501l6.523,81.736H19.489V305.12z M242.668,49.532c0,3.541-1.555,6.69-3.985,8.888
		c-2.783,40.772-36.749,73.105-78.202,73.105c-41.074,0-74.815-31.736-78.131-71.968c-3.252-2.153-5.405-5.836-5.405-10.032
		c0-6.639,5.379-12.025,12.025-12.025c6.639,0,12.018,5.386,12.018,12.025c0,3.291-1.33,6.273-3.47,8.438
		c2.519,32.571,29.756,58.317,62.964,58.317c32.828,0,59.866-25.155,62.906-57.205c-2.892-2.198-4.788-5.636-4.788-9.557
		c0-6.639,5.386-12.031,12.031-12.031C237.282,37.501,242.668,42.893,242.668,49.532z"/>
</g>
<g>
</g>
<g>
</g>
<g>
</g>
<g>
</g>
<g>
</g>
<g>
</g>
<g>
</g>
<g>
</g>
<g>
</g>
<g>
</g>
<g>
</g>
<g>
</g>
<g>
</g>
<g>
</g>
<g>
</g>
</svg>
